# xmcd CD database file generated by LOLA_Freedb v0.9beta0
# 
# Track frame offsets:
#      150
#      13226
#      25844
#      44422
#      51756
#      68525
#      80930
#      85825
#      97053
#      108537
#      121737
#      132402
#      146193
#      158460
#      172497
#      178565
#      193276
#      204907
#      213522
#      222914
#      236677
# 
# Disc length: 3256 seconds
# 
# Revision: 0 
# Processed by: cddbd v1.5.2PL0 Copyright (c) Steve Scherf et al.
# Submitted via: LOLA_Freedb v0.9beta0
# 
DISCID=3b0cb615
DTITLE=SAMPLER - SEE SEE RIDER - SOUTH MISSISSIPPI BLUES
DYEAR=1900
DGENRE=
TTITLE0=Babe Stovall - SEE SEE RIDER
TTITLE1=Eli Owens - RABBIT ON A LOG
TTITLE2=Roosevelt Hots - BIG FAT MAMA BLUES
TTITLE3=Herb Quinn - CASEY
TTITLE4=Babe Stovall - CANDY MAN
TTITLE5=O.D. Jones - BYE BYE BABY
TTITLE6=Eli Owens - OLD HEN CACKKLE
TTITLE7=Esau Weary - YOU DON'T HAVE TO GO
TTITLE8=Babe Stovall - DO LORD, REMENBER ME
TTITLE9=Roosevelt Hots - MATCHBOX BLUES
TTITLE10=Roosevelt Hots - MEAN CONDUCTOR BLUES
TTITLE11=Eli Owens - MULESKINNER BLUES
TTITLE12=Babe Stovall - MAYPOLE MARCH
TTITLE13=Myrt Holmes - RUN HERE, FAIRO
TTITLE14=Isaac Youngblood - HASITATING BLUES
TTITLE15=Esau Weary - FORTY_FOUR BLUES
TTITLE16=Babe Stovall - BOLL WEEVIL
TTITLE17=Eli Owens - IDA RED - SALLY GOODIN
TTITLE18=Babe Stovall - SWEET BUNCH OF DAISIES
TTITLE19=Eli Owens - WAYS LIKE THE DEVIL
TTITLE20=Roosevelt Hots - HOME TOWN SKIFFLE
EXTD=LP
EXTT0=
EXTT1=
EXTT2=
EXTT3=
EXTT4=
EXTT5=
EXTT6=
EXTT7=
EXTT8=
EXTT9=
EXTT10=
EXTT11=
EXTT12=
EXTT13=
EXTT14=
EXTT15=
EXTT16=
EXTT17=
EXTT18=
EXTT19=
EXTT20=
PLAYORDER=
